<svg data-v-fde0c5aa="" xmlns="http://www.w3.org/2000/svg" viewBox="0 0 300 300" class="iconLeft"><!----><defs data-v-fde0c5aa=""><!----></defs><rect data-v-fde0c5aa="" fill="#366164" x="0" y="0" width="300px" height="300px" class="logo-background-square"></rect><defs data-v-fde0c5aa=""><!----></defs><g data-v-fde0c5aa="" id="868e6490-4343-47c8-b03d-b7c3533d2bae" fill="#53BBAD" transform="matrix(1.4083550035089392,0,0,1.4083550035089392,77.13920098767785,136.73329609527482)"><path d="M8.88 3.75L8.88 6.19L8.07 6.19Q8.01 5.73 7.81 5.37Q7.60 5.01 7.26 4.76Q6.92 4.52 6.46 4.39Q6.00 4.26 5.43 4.26L5.43 4.26Q4.65 4.26 4.02 4.52Q3.40 4.79 2.96 5.27Q2.52 5.76 2.29 6.46Q2.06 7.16 2.06 8.03L2.06 8.03Q2.06 8.92 2.29 9.63Q2.53 10.33 2.97 10.82Q3.42 11.31 4.06 11.57Q4.70 11.83 5.51 11.83L5.51 11.83Q6.78 11.83 7.43 11.45Q8.08 11.08 8.08 10.31L8.08 10.31L8.08 9.41Q8.08 9.27 8.06 9.20Q8.04 9.13 7.95 9.09Q7.87 9.06 7.69 9.05Q7.51 9.05 7.21 9.05L7.21 9.05L6.35 9.05L6.35 8.33Q6.58 8.33 6.80 8.34Q7.02 8.34 7.28 8.34Q7.53 8.34 7.83 8.34Q8.13 8.35 8.50 8.35L8.50 8.35Q8.63 8.35 8.81 8.34Q9.00 8.34 9.19 8.34Q9.39 8.34 9.57 8.34Q9.76 8.33 9.91 8.33L9.91 8.33Q9.91 8.35 9.90 8.45Q9.89 8.56 9.89 8.69Q9.88 8.81 9.88 8.92Q9.87 9.02 9.87 9.04L9.87 9.04Q9.56 9.04 9.39 9.06Q9.22 9.08 9.14 9.12Q9.06 9.16 9.04 9.23Q9.02 9.29 9.02 9.40L9.02 9.40Q9.02 9.77 8.99 10.29Q8.95 10.81 8.91 11.37L8.91 11.37Q8.54 11.75 8.12 12.00Q7.70 12.24 7.26 12.38Q6.83 12.52 6.39 12.57Q5.95 12.63 5.54 12.63L5.54 12.63Q4.35 12.63 3.45 12.30Q2.55 11.98 1.94 11.38Q1.33 10.78 1.02 9.94Q0.71 9.09 0.71 8.05L0.71 8.05Q0.71 7.04 1.05 6.20Q1.38 5.35 1.98 4.75Q2.57 4.14 3.39 3.81Q4.21 3.47 5.18 3.47L5.18 3.47Q6.00 3.47 6.71 3.71Q7.42 3.94 7.96 4.46L7.96 4.46L8.03 3.75L8.88 3.75ZM16.58 8.37L16.58 10.93Q16.58 11.29 16.60 11.47Q16.63 11.66 16.69 11.75Q16.76 11.83 16.89 11.84Q17.01 11.85 17.22 11.85L17.22 11.85L17.53 11.85L17.53 12.46Q16.99 12.46 16.46 12.47Q15.93 12.48 15.47 12.49L15.47 12.49L15.47 11.55Q15.06 12.08 14.50 12.34Q13.93 12.61 13.18 12.61L13.18 12.61Q12.69 12.61 12.29 12.47Q11.89 12.33 11.61 12.08Q11.33 11.83 11.18 11.49Q11.03 11.15 11.03 10.74L11.03 10.74Q11.03 10.30 11.20 9.94Q11.38 9.58 11.72 9.33Q12.07 9.08 12.55 8.94Q13.04 8.80 13.67 8.80L13.67 8.80Q14.10 8.80 14.54 8.86Q14.98 8.93 15.43 9.04L15.43 9.04L15.43 8.06Q15.43 7.44 15.02 7.11Q14.60 6.78 13.75 6.78L13.75 6.78Q13.03 6.78 12.62 7.06Q12.22 7.33 12.08 7.92L12.08 7.92L11.45 7.84L11.54 6.64Q11.98 6.44 12.56 6.31Q13.15 6.19 13.88 6.19L13.88 6.19Q14.60 6.19 15.11 6.32Q15.63 6.45 15.95 6.71Q16.28 6.98 16.43 7.39Q16.58 7.81 16.58 8.37L16.58 8.37ZM13.93 9.37L13.93 9.37Q13.52 9.37 13.19 9.46Q12.87 9.56 12.64 9.73Q12.41 9.90 12.28 10.14Q12.16 10.39 12.16 10.71L12.16 10.71Q12.16 10.99 12.26 11.20Q12.36 11.42 12.54 11.57Q12.72 11.72 12.97 11.81Q13.23 11.89 13.53 11.89L13.53 11.89Q13.86 11.89 14.19 11.79Q14.53 11.68 14.81 11.49Q15.08 11.29 15.25 11.00Q15.43 10.70 15.43 10.28L15.43 10.28L15.43 9.61Q15.02 9.50 14.65 9.43Q14.28 9.37 13.93 9.37ZM19.18 4.79L20.05 4.61L20.05 6.34L21.69 6.34L21.69 6.95L20.06 6.95L20.06 10.38Q20.06 10.73 20.06 11.00Q20.07 11.28 20.13 11.48Q20.19 11.68 20.32 11.78Q20.45 11.89 20.69 11.89L20.69 11.89Q20.79 11.89 20.88 11.85Q20.98 11.81 21.05 11.72Q21.12 11.63 21.17 11.49Q21.21 11.35 21.21 11.15L21.21 11.15L21.83 11.09Q21.83 11.49 21.72 11.78Q21.61 12.07 21.42 12.25Q21.23 12.43 20.98 12.52Q20.73 12.61 20.45 12.61L20.45 12.61Q19.97 12.61 19.67 12.45Q19.37 12.29 19.21 12.01Q19.04 11.74 18.98 11.33Q18.92 10.93 18.92 10.44L18.92 10.44L18.92 6.95L17.79 6.95L17.79 6.41Q17.96 6.41 18.18 6.39Q18.39 6.37 18.58 6.36L18.58 6.36Q18.81 6.34 19.03 6.32L19.03 6.32Q19.04 6.27 19.05 6.14Q19.07 6.02 19.08 5.85Q19.09 5.68 19.11 5.50Q19.13 5.32 19.15 5.16Q19.16 5.01 19.17 4.90Q19.18 4.80 19.18 4.79L19.18 4.79ZM29.16 9.49L28.75 9.61L23.91 9.61Q23.91 10.16 24.08 10.58Q24.24 10.99 24.54 11.28Q24.84 11.57 25.26 11.73Q25.68 11.89 26.20 11.89L26.20 11.89Q26.91 11.89 27.44 11.59Q27.97 11.30 28.25 10.68L28.25 10.68L29.08 10.81Q28.77 11.68 27.98 12.14Q27.19 12.61 26.04 12.61L26.04 12.61Q25.27 12.61 24.65 12.37Q24.04 12.14 23.61 11.72Q23.18 11.29 22.96 10.72Q22.73 10.15 22.73 9.42L22.73 9.42Q22.73 8.68 22.96 8.09Q23.19 7.50 23.62 7.08Q24.04 6.65 24.64 6.42Q25.24 6.19 25.97 6.19L25.97 6.19Q26.71 6.19 27.30 6.41Q27.88 6.63 28.29 7.05Q28.70 7.48 28.93 8.09Q29.15 8.70 29.16 9.49L29.16 9.49ZM23.91 9.00L28.05 9.00Q27.97 7.96 27.43 7.43Q26.90 6.90 25.98 6.90L25.98 6.90Q25.55 6.90 25.20 7.04Q24.84 7.19 24.58 7.45Q24.31 7.72 24.14 8.10Q23.97 8.48 23.91 9.00L23.91 9.00ZM29.50 6.95L29.50 6.34Q29.85 6.35 30.19 6.35Q30.53 6.36 30.80 6.36L30.80 6.36Q31.05 6.36 31.41 6.35Q31.77 6.34 32.19 6.34L32.19 6.34L32.19 6.95Q31.76 6.95 31.68 6.95L31.68 6.95Q31.52 6.95 31.47 7.00Q31.42 7.05 31.42 7.20L31.42 7.20Q31.42 7.33 31.45 7.51Q31.49 7.68 31.54 7.88Q31.59 8.07 31.65 8.26Q31.71 8.46 31.77 8.65L31.77 8.65Q31.85 8.89 31.95 9.20Q32.05 9.52 32.15 9.84Q32.25 10.17 32.35 10.49Q32.44 10.81 32.52 11.06Q32.59 11.31 32.64 11.47Q32.69 11.63 32.70 11.66L32.70 11.66Q32.82 11.25 32.92 10.90L32.92 10.90Q32.96 10.75 33.01 10.60Q33.05 10.45 33.09 10.32Q33.13 10.19 33.16 10.09Q33.20 9.99 33.22 9.94L33.22 9.94L34.23 6.84L35.67 6.84L36.53 9.53Q36.56 9.63 36.60 9.78Q36.65 9.93 36.70 10.10Q36.75 10.27 36.80 10.46Q36.85 10.64 36.91 10.82L36.91 10.82Q37.03 11.25 37.16 11.70L37.16 11.70Q37.52 10.49 37.81 9.53L37.81 9.53Q37.93 9.12 38.05 8.72Q38.17 8.31 38.26 8.00Q38.36 7.68 38.42 7.48Q38.48 7.27 38.49 7.25L38.49 7.25Q38.51 7.21 38.51 7.17Q38.52 7.14 38.53 7.11L38.53 7.11Q38.51 7 38.34 6.98Q38.17 6.95 37.71 6.95L37.71 6.95L37.71 6.34Q38.00 6.34 38.30 6.35Q38.60 6.36 38.88 6.36L38.88 6.36Q39.22 6.36 39.56 6.35Q39.89 6.34 40.23 6.34L40.23 6.34L40.23 6.95Q39.92 6.95 39.76 6.98Q39.61 7 39.51 7.12Q39.41 7.24 39.33 7.50Q39.25 7.75 39.09 8.22L39.09 8.22L37.68 12.54L36.49 12.54L34.87 7.33L33.24 12.54L32.04 12.54L30.42 7.68Q30.33 7.42 30.27 7.28Q30.21 7.14 30.13 7.06Q30.04 6.99 29.90 6.97Q29.76 6.95 29.50 6.95L29.50 6.95ZM46.24 8.37L46.24 10.93Q46.24 11.29 46.26 11.47Q46.29 11.66 46.35 11.75Q46.42 11.83 46.55 11.84Q46.68 11.85 46.88 11.85L46.88 11.85L47.19 11.85L47.19 12.46Q46.65 12.46 46.12 12.47Q45.59 12.48 45.13 12.49L45.13 12.49L45.13 11.55Q44.72 12.08 44.16 12.34Q43.59 12.61 42.84 12.61L42.84 12.61Q42.35 12.61 41.95 12.47Q41.56 12.33 41.28 12.08Q41.00 11.83 40.84 11.49Q40.69 11.15 40.69 10.74L40.69 10.74Q40.69 10.30 40.87 9.94Q41.04 9.58 41.38 9.33Q41.73 9.08 42.22 8.94Q42.70 8.80 43.33 8.80L43.33 8.80Q43.76 8.80 44.20 8.86Q44.64 8.93 45.09 9.04L45.09 9.04L45.09 8.06Q45.09 7.44 44.68 7.11Q44.26 6.78 43.41 6.78L43.41 6.78Q42.69 6.78 42.28 7.06Q41.88 7.33 41.74 7.92L41.74 7.92L41.11 7.84L41.20 6.64Q41.64 6.44 42.22 6.31Q42.81 6.19 43.54 6.19L43.54 6.19Q44.26 6.19 44.78 6.32Q45.29 6.45 45.61 6.71Q45.94 6.98 46.09 7.39Q46.24 7.81 46.24 8.37L46.24 8.37ZM43.59 9.37L43.59 9.37Q43.18 9.37 42.85 9.46Q42.53 9.56 42.30 9.73Q42.07 9.90 41.95 10.14Q41.82 10.39 41.82 10.71L41.82 10.71Q41.82 10.99 41.92 11.20Q42.02 11.42 42.20 11.57Q42.38 11.72 42.64 11.81Q42.89 11.89 43.19 11.89L43.19 11.89Q43.52 11.89 43.86 11.79Q44.19 11.68 44.47 11.49Q44.74 11.29 44.92 11.00Q45.09 10.70 45.09 10.28L45.09 10.28L45.09 9.61Q44.68 9.50 44.31 9.43Q43.94 9.37 43.59 9.37ZM48.13 15.05L48.18 14.32Q48.36 14.35 48.52 14.38L48.52 14.38Q48.66 14.40 48.80 14.41Q48.95 14.42 49.04 14.42L49.04 14.42Q49.18 14.42 49.31 14.36Q49.44 14.30 49.56 14.16Q49.69 14.02 49.82 13.79Q49.96 13.56 50.11 13.23L50.11 13.23L50.37 12.54Q49.75 11.20 49.24 10.12L49.24 10.12Q49.02 9.66 48.81 9.21Q48.60 8.76 48.43 8.37Q48.26 7.98 48.15 7.73Q48.03 7.49 48.00 7.43L48.00 7.43Q47.93 7.27 47.87 7.17Q47.80 7.08 47.73 7.03Q47.65 6.98 47.53 6.97Q47.41 6.95 47.21 6.95L47.21 6.95L46.96 6.95L46.96 6.34Q47.35 6.34 47.73 6.35Q48.11 6.36 48.45 6.36L48.45 6.36Q48.77 6.36 49.17 6.35Q49.58 6.34 50.09 6.34L50.09 6.34L50.09 6.95L49.49 6.95Q49.31 6.95 49.20 7.02Q49.10 7.08 49.09 7.25L49.09 7.25Q49.10 7.38 49.15 7.55Q49.21 7.72 49.28 7.91Q49.36 8.09 49.45 8.27Q49.53 8.45 49.61 8.61L49.61 8.61L50.91 11.40Q51.19 10.71 51.46 10.04L51.46 10.04Q51.58 9.75 51.70 9.45Q51.82 9.15 51.95 8.84Q52.07 8.54 52.18 8.25Q52.29 7.96 52.39 7.73L52.39 7.73Q52.45 7.58 52.49 7.47Q52.52 7.36 52.53 7.27L52.53 7.27Q52.52 7.16 52.48 7.10Q52.45 7.04 52.34 7.01Q52.24 6.97 52.05 6.96Q51.86 6.95 51.55 6.95L51.55 6.95L51.55 6.34Q51.91 6.34 52.24 6.35Q52.57 6.36 52.90 6.36L52.90 6.36Q53.26 6.36 53.64 6.35Q54.02 6.34 54.42 6.34L54.42 6.34L54.42 6.95Q54.13 6.95 53.96 6.97Q53.79 6.99 53.69 7.06Q53.59 7.14 53.52 7.27Q53.45 7.40 53.35 7.63L53.35 7.63L50.99 13.19Q50.74 13.77 50.52 14.16Q50.31 14.55 50.08 14.79Q49.85 15.03 49.60 15.12Q49.36 15.22 49.04 15.22L49.04 15.22Q48.89 15.22 48.73 15.20Q48.58 15.17 48.44 15.13L48.44 15.13Q48.28 15.10 48.13 15.05L48.13 15.05ZM58.32 3.64L61.84 3.64Q64.58 3.64 65.96 4.71Q67.34 5.77 67.34 7.96L67.34 7.96Q67.34 9.09 67.02 9.94Q66.71 10.78 66.04 11.34Q65.38 11.90 64.36 12.18Q63.33 12.46 61.92 12.46L61.92 12.46L58.32 12.46L58.32 11.79L58.76 11.79Q59.05 11.79 59.20 11.74Q59.36 11.70 59.43 11.62Q59.50 11.55 59.51 11.43Q59.53 11.31 59.53 11.15L59.53 11.15Q59.53 11.15 59.53 10.88Q59.53 10.61 59.52 10.17Q59.52 9.73 59.52 9.16Q59.52 8.60 59.52 8.01L59.52 8.01L59.52 4.89Q59.52 4.68 59.47 4.57Q59.42 4.46 59.29 4.40Q59.16 4.34 58.92 4.33Q58.69 4.31 58.32 4.31L58.32 4.31L58.32 3.64ZM60.77 4.39L60.77 11.70L62.17 11.70Q63.10 11.70 63.81 11.49Q64.52 11.28 65.01 10.83Q65.50 10.38 65.75 9.67Q66.01 8.97 66.01 7.98L66.01 7.98Q66.01 7.07 65.76 6.39Q65.51 5.71 65.02 5.27Q64.54 4.83 63.82 4.61Q63.11 4.39 62.18 4.39L62.18 4.39L60.77 4.39ZM69.90 3.47L69.90 3.47Q70.25 3.47 70.44 3.64Q70.64 3.81 70.64 4.10L70.64 4.10Q70.64 4.40 70.45 4.58Q70.25 4.75 69.90 4.75L69.90 4.75Q69.56 4.75 69.37 4.58Q69.18 4.41 69.18 4.10L69.18 4.10Q69.18 3.81 69.37 3.64Q69.56 3.47 69.90 3.47ZM70.62 6.31L70.62 11.40Q70.62 11.56 70.68 11.65Q70.73 11.74 70.85 11.79Q70.98 11.83 71.17 11.84Q71.37 11.85 71.65 11.85L71.65 11.85L71.65 12.46Q71.47 12.46 71.17 12.46Q70.87 12.46 70.57 12.46Q70.27 12.46 70.03 12.45Q69.80 12.45 69.76 12.45L69.76 12.45Q69.37 12.45 69.07 12.46Q68.78 12.46 68.46 12.46L68.46 12.46L68.46 11.85Q68.83 11.85 69.04 11.83Q69.24 11.81 69.34 11.76Q69.44 11.72 69.46 11.63Q69.47 11.55 69.47 11.41L69.47 11.41L69.47 7.20Q69.47 7.10 69.42 7.05Q69.37 7.01 69.25 6.98Q69.14 6.96 68.95 6.96Q68.76 6.95 68.50 6.95L68.50 6.95L68.50 6.34Q69.08 6.34 69.59 6.34Q70.10 6.33 70.62 6.31L70.62 6.31ZM78.02 8.37L78.02 10.93Q78.02 11.29 78.04 11.47Q78.07 11.66 78.13 11.75Q78.20 11.83 78.33 11.84Q78.46 11.85 78.66 11.85L78.66 11.85L78.97 11.85L78.97 12.46Q78.43 12.46 77.90 12.47Q77.37 12.48 76.91 12.49L76.91 12.49L76.91 11.55Q76.50 12.08 75.94 12.34Q75.37 12.61 74.62 12.61L74.62 12.61Q74.13 12.61 73.73 12.47Q73.34 12.33 73.06 12.08Q72.78 11.83 72.62 11.49Q72.47 11.15 72.47 10.74L72.47 10.74Q72.47 10.30 72.65 9.94Q72.82 9.58 73.17 9.33Q73.51 9.08 74.00 8.94Q74.48 8.80 75.11 8.80L75.11 8.80Q75.54 8.80 75.98 8.86Q76.42 8.93 76.87 9.04L76.87 9.04L76.87 8.06Q76.87 7.44 76.46 7.11Q76.04 6.78 75.19 6.78L75.19 6.78Q74.47 6.78 74.06 7.06Q73.66 7.33 73.52 7.92L73.52 7.92L72.89 7.84L72.98 6.64Q73.42 6.44 74.00 6.31Q74.59 6.19 75.32 6.19L75.32 6.19Q76.04 6.19 76.56 6.32Q77.07 6.45 77.39 6.71Q77.72 6.98 77.87 7.39Q78.02 7.81 78.02 8.37L78.02 8.37ZM75.37 9.37L75.37 9.37Q74.96 9.37 74.63 9.46Q74.31 9.56 74.08 9.73Q73.85 9.90 73.73 10.14Q73.60 10.39 73.60 10.71L73.60 10.71Q73.60 10.99 73.70 11.20Q73.80 11.42 73.98 11.57Q74.16 11.72 74.42 11.81Q74.67 11.89 74.97 11.89L74.97 11.89Q75.30 11.89 75.64 11.79Q75.97 11.68 76.25 11.49Q76.52 11.29 76.70 11.00Q76.87 10.70 76.87 10.28L76.87 10.28L76.87 9.61Q76.46 9.50 76.09 9.43Q75.72 9.37 75.37 9.37ZM82.67 6.90L82.67 6.90Q82.21 6.90 81.83 7.07Q81.44 7.25 81.17 7.57Q80.90 7.89 80.76 8.36Q80.61 8.83 80.61 9.38L80.61 9.38Q80.61 9.93 80.76 10.37Q80.90 10.81 81.17 11.13Q81.44 11.44 81.83 11.61Q82.21 11.78 82.69 11.78L82.69 11.78Q83.16 11.78 83.54 11.60Q83.92 11.42 84.19 11.10Q84.46 10.78 84.62 10.33Q84.77 9.88 84.77 9.32L84.77 9.32Q84.77 8.79 84.62 8.34Q84.46 7.90 84.19 7.57Q83.92 7.25 83.53 7.07Q83.15 6.90 82.67 6.90ZM84.81 7.44L84.81 6.32Q85.12 6.33 85.42 6.34Q85.72 6.35 86.03 6.35L86.03 6.35Q86.30 6.35 86.50 6.35Q86.70 6.34 86.90 6.34L86.90 6.34L86.90 6.95Q86.52 6.95 86.31 6.98Q86.11 7 86.01 7.06Q85.91 7.12 85.89 7.22Q85.87 7.31 85.87 7.47L85.87 7.47L85.87 12.04Q85.87 13.00 85.64 13.64Q85.41 14.28 84.98 14.67Q84.55 15.05 83.94 15.21Q83.33 15.37 82.56 15.37L82.56 15.37Q81.83 15.37 81.18 15.22Q80.53 15.07 79.97 14.75L79.97 14.75L80.03 13.31Q80.04 13.32 80.14 13.32L80.14 13.32Q80.21 13.32 80.31 13.32Q80.40 13.32 80.47 13.31L80.47 13.31Q80.56 13.31 80.66 13.30L80.66 13.30Q80.72 13.71 80.87 13.98Q81.03 14.25 81.27 14.40Q81.51 14.56 81.84 14.63Q82.16 14.69 82.56 14.69L82.56 14.69Q83.00 14.69 83.39 14.58Q83.78 14.46 84.08 14.22Q84.38 13.97 84.55 13.58Q84.73 13.18 84.73 12.61L84.73 12.61L84.73 11.35Q84.34 11.89 83.75 12.18Q83.16 12.46 82.41 12.46L82.41 12.46Q81.74 12.46 81.19 12.24Q80.64 12.02 80.24 11.61Q79.85 11.21 79.64 10.64Q79.42 10.07 79.42 9.37L79.42 9.37Q79.42 8.67 79.64 8.08Q79.86 7.49 80.26 7.07Q80.66 6.65 81.21 6.42Q81.76 6.19 82.43 6.19L82.43 6.19Q83.20 6.19 83.79 6.50Q84.39 6.82 84.81 7.44L84.81 7.44ZM87.23 12.46L87.23 11.85Q87.61 11.85 87.82 11.84Q88.03 11.83 88.14 11.79Q88.24 11.74 88.26 11.68Q88.28 11.61 88.28 11.50L88.28 11.50L88.28 7.18Q88.28 7.10 88.23 7.05Q88.19 7 88.08 6.98Q87.96 6.96 87.77 6.96Q87.58 6.95 87.26 6.95L87.26 6.95L87.26 6.34Q87.87 6.34 88.38 6.34Q88.89 6.33 89.39 6.31L89.39 6.31L89.39 7.27Q89.85 6.75 90.46 6.47Q91.06 6.19 91.75 6.19L91.75 6.19Q92.74 6.19 93.28 6.73Q93.81 7.27 93.81 8.43L93.81 8.43L93.81 11.57Q93.81 11.68 93.86 11.74Q93.91 11.79 94.02 11.82Q94.13 11.84 94.32 11.84Q94.50 11.85 94.77 11.85L94.77 11.85L94.77 12.46Q94.60 12.46 94.44 12.46Q94.28 12.46 94.11 12.46Q93.93 12.46 93.74 12.46Q93.54 12.46 93.30 12.45L93.30 12.45Q92.80 12.45 92.41 12.46Q92.01 12.46 91.62 12.46L91.62 12.46L91.62 11.85Q92.00 11.85 92.22 11.84Q92.43 11.83 92.52 11.79Q92.62 11.75 92.64 11.69Q92.65 11.63 92.65 11.54L92.65 11.54L92.65 8.83Q92.65 8.37 92.60 7.99Q92.55 7.62 92.41 7.38Q92.27 7.14 92.03 7.02Q91.79 6.90 91.40 6.90L91.40 6.90Q91.03 6.90 90.73 7.02Q90.42 7.14 90.18 7.30Q89.93 7.47 89.75 7.66Q89.57 7.85 89.44 8.01L89.44 8.01Q89.42 8.52 89.42 9.05L89.42 9.05L89.42 11.53Q89.42 11.66 89.48 11.72Q89.54 11.79 89.66 11.82Q89.79 11.85 89.98 11.85Q90.18 11.85 90.46 11.85L90.46 11.85L90.46 12.46Q90.28 12.46 90.11 12.46Q89.94 12.46 89.76 12.46Q89.58 12.46 89.37 12.46Q89.16 12.46 88.92 12.45L88.92 12.45Q88.40 12.45 88.01 12.46Q87.61 12.46 87.23 12.46L87.23 12.46ZM98.74 6.19L98.74 6.19Q99.46 6.19 100.06 6.41Q100.66 6.64 101.09 7.06Q101.53 7.49 101.77 8.09Q102.01 8.69 102.01 9.41L102.01 9.41Q102.01 10.10 101.77 10.69Q101.53 11.29 101.10 11.72Q100.67 12.14 100.06 12.37Q99.46 12.61 98.74 12.61L98.74 12.61Q98.01 12.61 97.42 12.38Q96.82 12.15 96.39 11.72Q95.96 11.29 95.72 10.69Q95.48 10.10 95.48 9.41L95.48 9.41Q95.48 8.69 95.72 8.09Q95.96 7.49 96.39 7.06Q96.82 6.64 97.42 6.41Q98.02 6.19 98.74 6.19ZM98.74 6.90L98.74 6.90Q98.26 6.90 97.88 7.08Q97.49 7.25 97.22 7.57Q96.95 7.90 96.81 8.36Q96.67 8.83 96.67 9.40L96.67 9.40Q96.67 9.93 96.81 10.40Q96.96 10.87 97.23 11.20Q97.50 11.53 97.88 11.71Q98.27 11.89 98.74 11.89L98.74 11.89Q99.21 11.89 99.59 11.71Q99.98 11.53 100.25 11.20Q100.52 10.87 100.67 10.40Q100.82 9.93 100.82 9.40L100.82 9.40Q100.82 8.84 100.67 8.37Q100.52 7.90 100.25 7.57Q99.98 7.25 99.60 7.08Q99.21 6.90 98.74 6.90ZM108.02 6.34L108.02 8.24L107.38 8.24Q107.35 7.55 106.92 7.18Q106.50 6.81 105.69 6.81L105.69 6.81Q105.35 6.81 105.10 6.89Q104.84 6.97 104.67 7.11Q104.50 7.25 104.42 7.43Q104.34 7.61 104.34 7.80L104.34 7.80Q104.34 8.01 104.45 8.17Q104.56 8.33 104.77 8.46Q104.97 8.58 105.26 8.67Q105.54 8.77 105.88 8.86L105.88 8.86Q106.44 9.00 106.88 9.16Q107.33 9.32 107.64 9.53Q107.95 9.75 108.12 10.05Q108.29 10.36 108.29 10.80L108.29 10.80Q108.29 11.24 108.12 11.57Q107.94 11.91 107.61 12.14Q107.29 12.37 106.83 12.49Q106.37 12.61 105.81 12.61L105.81 12.61Q105.10 12.61 104.63 12.43Q104.16 12.26 103.86 11.89L103.86 11.89L103.79 12.46Q103.63 12.46 103.49 12.45Q103.35 12.45 103.19 12.46L103.19 12.46L103.19 10.43L103.85 10.43Q103.89 11.22 104.36 11.59Q104.84 11.96 105.66 11.96L105.66 11.96Q106.00 11.96 106.30 11.88Q106.59 11.81 106.79 11.69Q107.00 11.57 107.11 11.39Q107.23 11.21 107.23 10.96L107.23 10.96Q107.23 10.70 107.07 10.51Q106.91 10.33 106.64 10.19Q106.37 10.05 106.01 9.94Q105.65 9.84 105.25 9.72L105.25 9.72Q104.77 9.57 104.40 9.41Q104.04 9.25 103.79 9.04Q103.54 8.84 103.42 8.57Q103.30 8.29 103.30 7.92L103.30 7.92Q103.30 7.57 103.45 7.25Q103.61 6.94 103.89 6.70Q104.18 6.45 104.59 6.32Q104.99 6.19 105.50 6.19L105.50 6.19Q106.06 6.19 106.56 6.35Q107.06 6.51 107.37 6.83L107.37 6.83Q107.37 6.82 107.39 6.75Q107.41 6.68 107.44 6.59L107.44 6.59Q107.47 6.49 107.51 6.34L107.51 6.34Q107.63 6.35 107.74 6.35L107.74 6.35Q107.84 6.35 107.92 6.35Q107.99 6.34 108.02 6.34L108.02 6.34ZM110.37 4.79L111.24 4.61L111.24 6.34L112.88 6.34L112.88 6.95L111.25 6.95L111.25 10.38Q111.25 10.73 111.25 11.00Q111.26 11.28 111.32 11.48Q111.38 11.68 111.51 11.78Q111.64 11.89 111.88 11.89L111.88 11.89Q111.98 11.89 112.08 11.85Q112.17 11.81 112.24 11.72Q112.31 11.63 112.36 11.49Q112.40 11.35 112.40 11.15L112.40 11.15L113.03 11.09Q113.03 11.49 112.91 11.78Q112.80 12.07 112.61 12.25Q112.42 12.43 112.17 12.52Q111.92 12.61 111.64 12.61L111.64 12.61Q111.16 12.61 110.86 12.45Q110.56 12.29 110.40 12.01Q110.23 11.74 110.17 11.33Q110.11 10.93 110.11 10.44L110.11 10.44L110.11 6.95L108.99 6.95L108.99 6.41Q109.16 6.41 109.37 6.39Q109.58 6.37 109.77 6.36L109.77 6.36Q110.00 6.34 110.22 6.32L110.22 6.32Q110.23 6.27 110.24 6.14Q110.26 6.02 110.27 5.85Q110.28 5.68 110.30 5.50Q110.33 5.32 110.34 5.16Q110.35 5.01 110.36 4.90Q110.37 4.80 110.37 4.79L110.37 4.79ZM115.20 3.47L115.20 3.47Q115.54 3.47 115.74 3.64Q115.94 3.81 115.94 4.10L115.94 4.10Q115.94 4.40 115.74 4.58Q115.55 4.75 115.20 4.75L115.20 4.75Q114.86 4.75 114.67 4.58Q114.47 4.41 114.47 4.10L114.47 4.10Q114.47 3.81 114.67 3.64Q114.86 3.47 115.20 3.47ZM115.92 6.31L115.92 11.40Q115.92 11.56 115.97 11.65Q116.03 11.74 116.15 11.79Q116.27 11.83 116.47 11.84Q116.66 11.85 116.94 11.85L116.94 11.85L116.94 12.46Q116.76 12.46 116.46 12.46Q116.16 12.46 115.86 12.46Q115.56 12.46 115.33 12.45Q115.10 12.45 115.06 12.45L115.06 12.45Q114.67 12.45 114.37 12.46Q114.07 12.46 113.76 12.46L113.76 12.46L113.76 11.85Q114.13 11.85 114.33 11.83Q114.54 11.81 114.64 11.76Q114.73 11.72 114.75 11.63Q114.77 11.55 114.77 11.41L114.77 11.41L114.77 7.20Q114.77 7.10 114.72 7.05Q114.67 7.01 114.55 6.98Q114.43 6.96 114.25 6.96Q114.06 6.95 113.79 6.95L113.79 6.95L113.79 6.34Q114.37 6.34 114.88 6.34Q115.40 6.33 115.92 6.31L115.92 6.31ZM123.42 6.39L123.42 8.52L122.75 8.52Q122.72 7.70 122.26 7.30Q121.81 6.90 121.01 6.90L121.01 6.90Q120.52 6.90 120.14 7.07Q119.76 7.25 119.50 7.57Q119.23 7.89 119.09 8.35Q118.95 8.82 118.95 9.40L118.95 9.40Q118.95 9.99 119.10 10.43Q119.24 10.87 119.51 11.20Q119.78 11.53 120.16 11.71Q120.54 11.89 121.02 11.89L121.02 11.89Q121.71 11.89 122.17 11.55Q122.63 11.22 122.81 10.55L122.81 10.55L123.61 10.68Q123.50 11.16 123.27 11.52Q123.03 11.89 122.68 12.11Q122.34 12.34 121.88 12.47Q121.43 12.61 120.89 12.61L120.89 12.61Q120.18 12.61 119.59 12.38Q119.01 12.15 118.60 11.75Q118.19 11.35 117.97 10.76Q117.74 10.17 117.74 9.45L117.74 9.45Q117.74 8.76 117.96 8.17Q118.18 7.58 118.58 7.14Q118.98 6.71 119.53 6.45Q120.08 6.19 120.75 6.19L120.75 6.19Q121.02 6.19 121.29 6.22Q121.56 6.25 121.80 6.34Q122.04 6.42 122.25 6.56Q122.46 6.71 122.62 6.92L122.62 6.92L122.79 6.38Q122.82 6.38 122.91 6.38Q123.01 6.38 123.11 6.38Q123.21 6.38 123.30 6.39Q123.40 6.39 123.42 6.39L123.42 6.39ZM129.57 6.34L129.57 8.24L128.93 8.24Q128.90 7.55 128.47 7.18Q128.04 6.81 127.24 6.81L127.24 6.81Q126.90 6.81 126.64 6.89Q126.39 6.97 126.22 7.11Q126.05 7.25 125.97 7.43Q125.88 7.61 125.88 7.80L125.88 7.80Q125.88 8.01 126.00 8.17Q126.11 8.33 126.31 8.46Q126.52 8.58 126.80 8.67Q127.09 8.77 127.43 8.86L127.43 8.86Q127.98 9.00 128.43 9.16Q128.88 9.32 129.19 9.53Q129.50 9.75 129.67 10.05Q129.84 10.36 129.84 10.80L129.84 10.80Q129.84 11.24 129.66 11.57Q129.49 11.91 129.16 12.14Q128.84 12.37 128.38 12.49Q127.92 12.61 127.36 12.61L127.36 12.61Q126.65 12.61 126.18 12.43Q125.71 12.26 125.41 11.89L125.41 11.89L125.34 12.46Q125.18 12.46 125.04 12.45Q124.89 12.45 124.74 12.46L124.74 12.46L124.74 10.43L125.40 10.43Q125.44 11.22 125.91 11.59Q126.38 11.96 127.20 11.96L127.20 11.96Q127.55 11.96 127.84 11.88Q128.13 11.81 128.34 11.69Q128.54 11.57 128.66 11.39Q128.78 11.21 128.78 10.96L128.78 10.96Q128.78 10.70 128.61 10.51Q128.45 10.33 128.18 10.19Q127.91 10.05 127.56 9.94Q127.20 9.84 126.80 9.72L126.80 9.72Q126.31 9.57 125.95 9.41Q125.58 9.25 125.34 9.04Q125.09 8.84 124.97 8.57Q124.84 8.29 124.84 7.92L124.84 7.92Q124.84 7.57 125.00 7.25Q125.15 6.94 125.44 6.70Q125.73 6.45 126.13 6.32Q126.54 6.19 127.05 6.19L127.05 6.19Q127.61 6.19 128.11 6.35Q128.60 6.51 128.91 6.83L128.91 6.83Q128.91 6.82 128.94 6.75Q128.96 6.68 128.99 6.59L128.99 6.59Q129.01 6.49 129.06 6.34L129.06 6.34Q129.18 6.35 129.29 6.35L129.29 6.35Q129.38 6.35 129.46 6.35Q129.54 6.34 129.57 6.34L129.57 6.34Z"></path></g><defs data-v-fde0c5aa=""><!----></defs><g data-v-fde0c5aa="" id="707dda62-ffb6-4da6-97f4-cb92a261b40a" stroke="none" fill="#53BBAD" transform="matrix(0.7855979065609119,0,0,0.7855979065609119,40,137.42257601699464)"><path d="M6.651 27h6.024v5.01h6.651V27h6.024v5.01H32v-32h-6.651V5h-6.024V.01h-6.651V5H6.651V.01H0v32h6.651V27zM19.325 7h6.024v4.666h-6.024V7zm0 6.666h6.024v4.667h-6.024v-4.667zm0 6.667h6.024V25h-6.024v-4.667zM6.651 7h6.024v4.666H6.651V7zm0 6.666h6.024v4.667H6.651v-4.667zm0 6.667h6.024V25H6.651v-4.667z"></path></g><!----></svg>